Coordinates
version=1
nRows=9
nColumns=63
inDegrees=yes

Units are S.I. units (second, meters, Newtons, ...)
If the header above contains a line with 'inDegrees', this indicates whether rotational values are in degrees (yes) or radians (no).

endheader
time	pelvis_tilt	pelvis_list	pelvis_rotation	pelvis_tx	pelvis_ty	pelvis_tz	hip_flexion_r	hip_adduction_r	hip_rotation_r	knee_angle_r	knee_angle_r_beta	ankle_angle_r	subtalar_angle_r	mtp_angle_r	hip_flexion_l	hip_adduction_l	hip_rotation_l	knee_angle_l	knee_angle_l_beta	ankle_angle_l	subtalar_angle_l	mtp_angle_l	L5_S1_Flex_Ext	L5_S1_Lat_Bending	L5_S1_axial_rotation	L4_L5_Flex_Ext	L4_L5_Lat_Bending	L4_L5_axial_rotation	L3_L4_Flex_Ext	L3_L4_Lat_Bending	L3_L4_axial_rotation	L2_L3_Flex_Ext	L2_L3_Lat_Bending	L2_L3_axial_rotation	L1_L2_Flex_Ext	L1_L2_Lat_Bending	L1_L2_axial_rotation	L1_T12_Flex_Ext	L1_T12_Lat_Bending	L1_T12_axial_rotation	Abs_r3	Abs_r2	Abs_r1	Abs_t1	Abs_t2	neck_flexion	neck_bending	neck_rotation	arm_flex_r	arm_add_r	arm_rot_r	elbow_flex_r	pro_sup_r	wrist_flex_r	wrist_dev_r	arm_flex_l	arm_add_l	arm_rot_l	elbow_flex_l	pro_sup_l	wrist_flex_l	wrist_dev_l
      1.09615385	      1.78523231	     -1.73035946	    107.60189977	      0.02324006	      0.91744626	      0.48239913	      2.95235720	     -0.94491764	    -19.85977373	     11.53912862	      0.20139579	     28.62451492	      4.71982708	      0.00000000	      3.07963891	     -0.85419221	      8.78903680	      9.02826866	      0.15757301	     25.03381881	      0.00827699	      0.00000000	      0.24932938	      0.36228522	     -2.23551118	      0.46302959	      0.48183935	     -2.37523063	      0.40962324	      0.88086029	     -2.37523063	      0.28495855	      0.88086029	     -1.95607228	      0.23152726	      0.73877203	     -1.81635283	      0.14246681	      0.56117981	     -1.67663339	      1.78093484	      4.09824290	    -12.43324253	      0.00000000	      0.00000000	     26.78991968	      3.10952028	      3.14359460	     13.20404662	     -6.97227294	     59.44311876	     46.72874513	      2.46462630	    -42.26405373	     32.71567505	     13.76548598	     -3.78732903	     52.68536552	     39.96352116	     76.21813742	     21.63613573	     18.36712145
      1.11538462	      1.54585156	     -1.87552483	    107.53424033	      0.02399428	      0.91685152	      0.48253465	      3.12119984	     -1.21010122	    -19.83524793	     11.77511079	      0.20551445	     29.05052565	      4.82893114	      0.00000000	      3.25905558	     -0.76126069	      7.16953751	      9.10855984	      0.15897436	     25.93761981	      3.01173654	      0.00000000	      0.26961862	      0.33083991	     -2.24240564	      0.50070874	      0.44001708	     -2.38255599	      0.44295643	      0.80440416	     -2.38255599	      0.30814712	      0.80440416	     -1.96210494	      0.25036785	      0.67464875	     -1.82195458	      0.15406008	      0.51247102	     -1.68180423	      1.92585885	      3.74252724	    -12.47158745	      0.00000000	      0.00000000	     26.88101448	      2.25035026	      0.82104208	     13.70623968	     -6.77619088	     60.92144167	     46.45207009	      2.38001283	    -42.00918238	     32.55672920	     13.75745086	     -4.19466127	     51.49756192	     40.62846272	     84.55164235	     23.56031448	     15.88185879
      1.13461538	      1.42685896	     -1.92884174	    107.74579012	      0.02419274	      0.91626017	      0.48286973	      3.13057157	     -1.34827494	    -20.28580255	     11.85461520	      0.20690207	     29.42661475	      5.29695692	      0.00000000	      3.33696356	     -0.62019632	      7.99527342	      9.07911946	      0.15846053	     26.24902868	      2.79925773	      0.00000000	      0.28087290	      0.31985051	     -2.24920531	      0.52160907	      0.42540118	     -2.38978065	      0.46144609	      0.77768454	     -2.38978065	      0.32100964	      0.77768454	     -1.96805465	      0.26081858	      0.65223917	     -1.82747932	      0.16049078	      0.49544845	     -1.68690399	      2.00624707	      3.61821298	    -12.50940520	      0.00000000	      0.00000000	     27.00011826	      1.17502558	     -1.70008901	     13.97361641	     -6.76805398	     61.69803102	     46.32969292	      2.59029082	    -41.36909006	     32.64172596	     14.08948482	     -4.63322322	     52.23698759	     41.22835036	     85.84773044	     23.01862496	     15.30731617
      1.15384615	      1.25826509	     -2.00344128	    107.75377921	      0.02474065	      0.91553385	      0.48320793	      3.22865137	     -1.49021891	    -20.03002917	     12.00295850	      0.20949115	     29.76059904	      5.08663031	      0.00000000	      3.45573181	     -0.47293687	      8.08219278	      9.16880127	      0.16002577	     26.69682980	      3.15577453	      0.00000000	      0.29150036	      0.30287969	     -2.21859405	      0.54134532	      0.40282998	     -2.35725618	      0.47890594	      0.73642167	     -2.35725618	      0.33315576	      0.73642167	     -1.94126980	      0.27068724	      0.61763226	     -1.80260767	      0.16656331	      0.46916063	     -1.66394554	      2.08215793	      3.42623559	    -12.33915454	      0.00000000	      0.00000000	     27.06562206	      0.06965240	     -4.29133204	     14.24450862	     -6.72121836	     62.50685801	     46.14499427	      2.61749079	    -40.28238530	     32.82314774	     14.25847169	     -5.12617568	     52.70372749	     42.05412722	     86.43093368	     22.18404676	     15.31726580
      1.17307692	      1.17373419	     -2.04789298	    107.75712573	      0.02501220	      0.91476428	      0.48348646	      3.29392857	     -1.59678649	    -20.21692421	     12.13140843	      0.21173302	     30.15034924	      5.53458143	      0.00000000	      3.60963653	     -0.40099340	      8.07403543	      9.36675326	      0.16348068	     27.18105259	      3.46399276	      0.00000000	      0.30181688	      0.29827376	     -2.17124812	      0.56050412	      0.39670410	     -2.30695112	      0.49585495	      0.72522283	     -2.30695112	      0.34494651	      0.72522283	     -1.89984210	      0.28026715	      0.60823986	     -1.76413910	      0.17245816	      0.46202606	     -1.62843609	      2.15584777	      3.37413246	    -12.07583065	      0.00000000	      0.00000000	     27.09304400	     -1.39724203	     -7.32431922	     13.93261546	     -6.68967531	     61.79145947	     46.25577366	      2.62306196	    -40.02460400	     32.91536366	     14.03803152	     -5.25560652	     52.03850401	     42.57253594	     87.05619395	     21.83266825	     15.21353558
      1.19230769	      1.08385030	     -2.04299537	    107.74766695	      0.02528593	      0.91403176	      0.48430745	      3.44337473	     -1.72798528	    -20.16048340	     12.42643669	      0.21688223	     30.49495368	      5.65678988	      0.00000000	      3.92310619	     -0.29545320	      8.03393311	      9.93729105	      0.17343845	     27.73768551	      3.55217075	      0.00000000	      0.29945649	      0.30144788	     -2.15136785	      0.55612066	      0.40092569	     -2.28582834	      0.49197707	      0.73294039	     -2.28582834	      0.34224883	      0.73294039	     -1.88244687	      0.27807530	      0.61471253	     -1.74798638	      0.17110944	      0.46694277	     -1.61352589	      2.13898779	      3.41003876	    -11.96526256	      0.00000000	      0.00000000	     27.01350633	     -2.47829922	     -9.20365570	     13.72146065	     -6.62305804	     61.14201750	     46.34740436	      2.42207858	    -39.90733490	     33.04232368	     13.70305218	     -5.41322375	     51.28112439	     43.06831031	     86.96979208	     21.24693022	     14.71787921
      1.21153846	      1.08838339	     -2.13278276	    107.75345155	      0.02536143	      0.91344945	      0.48487282	      3.59646703	     -1.77307152	    -20.43535546	     12.46351430	      0.21752936	     30.63112357	      5.72704858	      0.00000000	      4.19379874	     -0.28859256	      7.79153999	     10.16470807	      0.17740762	     28.15003735	      4.25822244	      0.00000000	      0.31723601	      0.29992864	     -2.06783197	      0.58913900	      0.39890509	     -2.19707147	      0.52118705	      0.72924648	     -2.19707147	      0.36256904	      0.72924648	     -1.80935297	      0.29458536	      0.61161447	     -1.68011347	      0.18126866	      0.46458946	     -1.55087398	      2.26598512	      3.39285271	    -11.50066106	      0.00000000	      0.00000000	     26.72644637	     -4.86274786	    -13.76918019	     12.89603683	     -6.51683088	     59.12978720	     46.52283137	      2.25674679	    -40.30174708	     33.05278328	     13.25804868	     -5.13582559	     50.38337674	     43.01882609	     86.81530601	     20.42218583	     14.34303550
      1.23076923	      1.03609534	     -2.07953106	    107.77023825	      0.02581769	      0.91320908	      0.48563076	      3.60389446	     -1.80769379	    -20.44351437	     12.45964397	      0.21746181	     30.64584052	      5.71709121	      0.00000000	      4.22559835	     -0.24973076	      7.79412814	     10.16515741	      0.17741547	     28.16288441	      4.26300594	      0.00000000	      0.31439144	      0.30804980	     -2.06193229	      0.58385634	      0.40970624	     -2.19080306	      0.51651369	      0.74899229	     -2.19080306	      0.35931798	      0.74899229	     -1.80419076	      0.29194389	      0.62817515	     -1.67531999	      0.17964327	      0.47716914	     -1.54644922	      2.24566661	      3.48472096	    -11.46784884	      0.00000000	      0.00000000	     26.71386276	     -4.86319614	    -13.78372577	     12.84873295	     -6.45917638	     59.14215447	     46.54256997	      2.25144768	    -40.30003049	     33.05670028	     13.23544986	     -5.16489190	     50.38068127	     42.99888839	     86.81239292	     20.41884090	     14.34402810
      1.25000000	      0.90212064	     -2.05955447	    107.51424086	      0.02603730	      0.91283334	      0.48648724	      3.84517621	     -2.03799209	    -20.48137929	     12.86059435	      0.22445972	     31.16709487	      5.52338287	      0.00000000	      4.62186548	     -0.19416378	      6.20132876	     10.95367770	      0.19117774	     29.20887264	      6.20256538	      0.00000000	      0.29408257	      0.28628277	     -1.79347200	      0.54614075	      0.38075608	     -1.90556400	      0.48314826	      0.69606792	     -1.90556400	      0.33610697	      0.69606792	     -1.56928800	      0.27308508	      0.58378782	     -1.45719600	      0.16803878	      0.44345201	     -1.34510400	      2.10060242	      3.23848792	     -9.97475321	      0.00000000	      0.00000000	     25.81802352	     -7.83860654	    -19.66818201	     10.84761097	     -6.12896774	     53.28465602	     47.31559131	      2.03958008	    -43.20724528	     32.75163857	     13.42443276	     -4.37027787	     50.20509057	     41.96343844	     85.60987658	     20.63007970	     14.33947896
